<?xml version="1.0" encoding="utf-8" standalone="no"?>
<!DOCTYPE svg PUBLIC "-//W3C//DTD SVG 1.1//EN"
  "http://www.w3.org/Graphics/SVG/1.1/DTD/svg11.dtd">
<!-- Created with matplotlib (https://matplotlib.org/) -->
<svg height="345.6pt" version="1.1" viewBox="0 0 460.8 345.6" width="460.8pt" xmlns="http://www.w3.org/2000/svg" xmlns:xlink="http://www.w3.org/1999/xlink">
 <defs>
  <style type="text/css">
*{stroke-linecap:butt;stroke-linejoin:round;}
  </style>
 </defs>
 <g id="figure_1">
  <g id="patch_1">
   <path d="M 0 345.6 
L 460.8 345.6 
L 460.8 0 
L 0 0 
z
" style="fill:#ffffff;"/>
  </g>
  <g id="axes_1">
   <g id="patch_2">
    <path d="M 57.6 307.584 
L 414.72 307.584 
L 414.72 41.472 
L 57.6 41.472 
z
" style="fill:#ffffff;"/>
   </g>
   <g id="matplotlib.axis_1">
    <g id="xtick_1">
     <g id="line2d_1">
      <defs>
       <path d="M 0 0 
L 0 3.5 
" id="mdc71bfccff" style="stroke:#000000;stroke-width:0.8;"/>
      </defs>
      <g>
       <use style="stroke:#000000;stroke-width:0.8;" x="105.45618" xlink:href="#mdc71bfccff" y="307.584"/>
      </g>
     </g>
     <g id="text_1">
      <!-- 0.0 -->
      <defs>
       <path d="M 31.78125 66.40625 
Q 24.171875 66.40625 20.328125 58.90625 
Q 16.5 51.421875 16.5 36.375 
Q 16.5 21.390625 20.328125 13.890625 
Q 24.171875 6.390625 31.78125 6.390625 
Q 39.453125 6.390625 43.28125 13.890625 
Q 47.125 21.390625 47.125 36.375 
Q 47.125 51.421875 43.28125 58.90625 
Q 39.453125 66.40625 31.78125 66.40625 
z
M 31.78125 74.21875 
Q 44.046875 74.21875 50.515625 64.515625 
Q 56.984375 54.828125 56.984375 36.375 
Q 56.984375 17.96875 50.515625 8.265625 
Q 44.046875 -1.421875 31.78125 -1.421875 
Q 19.53125 -1.421875 13.0625 8.265625 
Q 6.59375 17.96875 6.59375 36.375 
Q 6.59375 54.828125 13.0625 64.515625 
Q 19.53125 74.21875 31.78125 74.21875 
z
" id="DejaVuSans-48"/>
       <path d="M 10.6875 12.40625 
L 21 12.40625 
L 21 0 
L 10.6875 0 
z
" id="DejaVuSans-46"/>
      </defs>
      <g transform="translate(97.504618 322.182437)scale(0.1 -0.1)">
       <use xlink:href="#DejaVuSans-48"/>
       <use x="63.623047" xlink:href="#DejaVuSans-46"/>
       <use x="95.410156" xlink:href="#DejaVuSans-48"/>
      </g>
     </g>
    </g>
    <g id="xtick_2">
     <g id="line2d_2">
      <g>
       <use style="stroke:#000000;stroke-width:0.8;" x="169.111489" xlink:href="#mdc71bfccff" y="307.584"/>
      </g>
     </g>
     <g id="text_2">
      <!-- 0.5 -->
      <defs>
       <path d="M 10.796875 72.90625 
L 49.515625 72.90625 
L 49.515625 64.59375 
L 19.828125 64.59375 
L 19.828125 46.734375 
Q 21.96875 47.46875 24.109375 47.828125 
Q 26.265625 48.1875 28.421875 48.1875 
Q 40.625 48.1875 47.75 41.5 
Q 54.890625 34.8125 54.890625 23.390625 
Q 54.890625 11.625 47.5625 5.09375 
Q 40.234375 -1.421875 26.90625 -1.421875 
Q 22.3125 -1.421875 17.546875 -0.640625 
Q 12.796875 0.140625 7.71875 1.703125 
L 7.71875 11.625 
Q 12.109375 9.234375 16.796875 8.0625 
Q 21.484375 6.890625 26.703125 6.890625 
Q 35.15625 6.890625 40.078125 11.328125 
Q 45.015625 15.765625 45.015625 23.390625 
Q 45.015625 31 40.078125 35.4375 
Q 35.15625 39.890625 26.703125 39.890625 
Q 22.75 39.890625 18.8125 39.015625 
Q 14.890625 38.140625 10.796875 36.28125 
z
" id="DejaVuSans-53"/>
      </defs>
      <g transform="translate(161.159926 322.182437)scale(0.1 -0.1)">
       <use xlink:href="#DejaVuSans-48"/>
       <use x="63.623047" xlink:href="#DejaVuSans-46"/>
       <use x="95.410156" xlink:href="#DejaVuSans-53"/>
      </g>
     </g>
    </g>
    <g id="xtick_3">
     <g id="line2d_3">
      <g>
       <use style="stroke:#000000;stroke-width:0.8;" x="232.766797" xlink:href="#mdc71bfccff" y="307.584"/>
      </g>
     </g>
     <g id="text_3">
      <!-- 1.0 -->
      <defs>
       <path d="M 12.40625 8.296875 
L 28.515625 8.296875 
L 28.515625 63.921875 
L 10.984375 60.40625 
L 10.984375 69.390625 
L 28.421875 72.90625 
L 38.28125 72.90625 
L 38.28125 8.296875 
L 54.390625 8.296875 
L 54.390625 0 
L 12.40625 0 
z
" id="DejaVuSans-49"/>
      </defs>
      <g transform="translate(224.815234 322.182437)scale(0.1 -0.1)">
       <use xlink:href="#DejaVuSans-49"/>
       <use x="63.623047" xlink:href="#DejaVuSans-46"/>
       <use x="95.410156" xlink:href="#DejaVuSans-48"/>
      </g>
     </g>
    </g>
    <g id="xtick_4">
     <g id="line2d_4">
      <g>
       <use style="stroke:#000000;stroke-width:0.8;" x="296.422105" xlink:href="#mdc71bfccff" y="307.584"/>
      </g>
     </g>
     <g id="text_4">
      <!-- 1.5 -->
      <g transform="translate(288.470542 322.182437)scale(0.1 -0.1)">
       <use xlink:href="#DejaVuSans-49"/>
       <use x="63.623047" xlink:href="#DejaVuSans-46"/>
       <use x="95.410156" xlink:href="#DejaVuSans-53"/>
      </g>
     </g>
    </g>
    <g id="xtick_5">
     <g id="line2d_5">
      <g>
       <use style="stroke:#000000;stroke-width:0.8;" x="360.077413" xlink:href="#mdc71bfccff" y="307.584"/>
      </g>
     </g>
     <g id="text_5">
      <!-- 2.0 -->
      <defs>
       <path d="M 19.1875 8.296875 
L 53.609375 8.296875 
L 53.609375 0 
L 7.328125 0 
L 7.328125 8.296875 
Q 12.9375 14.109375 22.625 23.890625 
Q 32.328125 33.6875 34.8125 36.53125 
Q 39.546875 41.84375 41.421875 45.53125 
Q 43.3125 49.21875 43.3125 52.78125 
Q 43.3125 58.59375 39.234375 62.25 
Q 35.15625 65.921875 28.609375 65.921875 
Q 23.96875 65.921875 18.8125 64.3125 
Q 13.671875 62.703125 7.8125 59.421875 
L 7.8125 69.390625 
Q 13.765625 71.78125 18.9375 73 
Q 24.125 74.21875 28.421875 74.21875 
Q 39.75 74.21875 46.484375 68.546875 
Q 53.21875 62.890625 53.21875 53.421875 
Q 53.21875 48.921875 51.53125 44.890625 
Q 49.859375 40.875 45.40625 35.40625 
Q 44.1875 33.984375 37.640625 27.21875 
Q 31.109375 20.453125 19.1875 8.296875 
z
" id="DejaVuSans-50"/>
      </defs>
      <g transform="translate(352.12585 322.182437)scale(0.1 -0.1)">
       <use xlink:href="#DejaVuSans-50"/>
       <use x="63.623047" xlink:href="#DejaVuSans-46"/>
       <use x="95.410156" xlink:href="#DejaVuSans-48"/>
      </g>
     </g>
    </g>
    <g id="text_6">
     <!-- 1e12 -->
     <defs>
      <path d="M 56.203125 29.59375 
L 56.203125 25.203125 
L 14.890625 25.203125 
Q 15.484375 15.921875 20.484375 11.0625 
Q 25.484375 6.203125 34.421875 6.203125 
Q 39.59375 6.203125 44.453125 7.46875 
Q 49.3125 8.734375 54.109375 11.28125 
L 54.109375 2.78125 
Q 49.265625 0.734375 44.1875 -0.34375 
Q 39.109375 -1.421875 33.890625 -1.421875 
Q 20.796875 -1.421875 13.15625 6.1875 
Q 5.515625 13.8125 5.515625 26.8125 
Q 5.515625 40.234375 12.765625 48.109375 
Q 20.015625 56 32.328125 56 
Q 43.359375 56 49.78125 48.890625 
Q 56.203125 41.796875 56.203125 29.59375 
z
M 47.21875 32.234375 
Q 47.125 39.59375 43.09375 43.984375 
Q 39.0625 48.390625 32.421875 48.390625 
Q 24.90625 48.390625 20.390625 44.140625 
Q 15.875 39.890625 15.1875 32.171875 
z
" id="DejaVuSans-101"/>
     </defs>
     <g transform="translate(389.479375 334.860562)scale(0.1 -0.1)">
      <use xlink:href="#DejaVuSans-49"/>
      <use x="63.623047" xlink:href="#DejaVuSans-101"/>
      <use x="125.146484" xlink:href="#DejaVuSans-49"/>
      <use x="188.769531" xlink:href="#DejaVuSans-50"/>
     </g>
    </g>
   </g>
   <g id="matplotlib.axis_2">
    <g id="ytick_1">
     <g id="line2d_6">
      <defs>
       <path d="M 0 0 
L -3.5 0 
" id="m228892d971" style="stroke:#000000;stroke-width:0.8;"/>
      </defs>
      <g>
       <use style="stroke:#000000;stroke-width:0.8;" x="57.6" xlink:href="#m228892d971" y="276.633325"/>
      </g>
     </g>
     <g id="text_7">
      <!-- −1.0 -->
      <defs>
       <path d="M 10.59375 35.5 
L 73.1875 35.5 
L 73.1875 27.203125 
L 10.59375 27.203125 
z
" id="DejaVuSans-8722"/>
      </defs>
      <g transform="translate(26.317187 280.432544)scale(0.1 -0.1)">
       <use xlink:href="#DejaVuSans-8722"/>
       <use x="83.789062" xlink:href="#DejaVuSans-49"/>
       <use x="147.412109" xlink:href="#DejaVuSans-46"/>
       <use x="179.199219" xlink:href="#DejaVuSans-48"/>
      </g>
     </g>
    </g>
    <g id="ytick_2">
     <g id="line2d_7">
      <g>
       <use style="stroke:#000000;stroke-width:0.8;" x="57.6" xlink:href="#m228892d971" y="239.584488"/>
      </g>
     </g>
     <g id="text_8">
      <!-- −0.5 -->
      <g transform="translate(26.317187 243.383706)scale(0.1 -0.1)">
       <use xlink:href="#DejaVuSans-8722"/>
       <use x="83.789062" xlink:href="#DejaVuSans-48"/>
       <use x="147.412109" xlink:href="#DejaVuSans-46"/>
       <use x="179.199219" xlink:href="#DejaVuSans-53"/>
      </g>
     </g>
    </g>
    <g id="ytick_3">
     <g id="line2d_8">
      <g>
       <use style="stroke:#000000;stroke-width:0.8;" x="57.6" xlink:href="#m228892d971" y="202.53565"/>
      </g>
     </g>
     <g id="text_9">
      <!-- 0.0 -->
      <g transform="translate(34.696875 206.334869)scale(0.1 -0.1)">
       <use xlink:href="#DejaVuSans-48"/>
       <use x="63.623047" xlink:href="#DejaVuSans-46"/>
       <use x="95.410156" xlink:href="#DejaVuSans-48"/>
      </g>
     </g>
    </g>
    <g id="ytick_4">
     <g id="line2d_9">
      <g>
       <use style="stroke:#000000;stroke-width:0.8;" x="57.6" xlink:href="#m228892d971" y="165.486813"/>
      </g>
     </g>
     <g id="text_10">
      <!-- 0.5 -->
      <g transform="translate(34.696875 169.286031)scale(0.1 -0.1)">
       <use xlink:href="#DejaVuSans-48"/>
       <use x="63.623047" xlink:href="#DejaVuSans-46"/>
       <use x="95.410156" xlink:href="#DejaVuSans-53"/>
      </g>
     </g>
    </g>
    <g id="ytick_5">
     <g id="line2d_10">
      <g>
       <use style="stroke:#000000;stroke-width:0.8;" x="57.6" xlink:href="#m228892d971" y="128.437975"/>
      </g>
     </g>
     <g id="text_11">
      <!-- 1.0 -->
      <g transform="translate(34.696875 132.237194)scale(0.1 -0.1)">
       <use xlink:href="#DejaVuSans-49"/>
       <use x="63.623047" xlink:href="#DejaVuSans-46"/>
       <use x="95.410156" xlink:href="#DejaVuSans-48"/>
      </g>
     </g>
    </g>
    <g id="ytick_6">
     <g id="line2d_11">
      <g>
       <use style="stroke:#000000;stroke-width:0.8;" x="57.6" xlink:href="#m228892d971" y="91.389137"/>
      </g>
     </g>
     <g id="text_12">
      <!-- 1.5 -->
      <g transform="translate(34.696875 95.188356)scale(0.1 -0.1)">
       <use xlink:href="#DejaVuSans-49"/>
       <use x="63.623047" xlink:href="#DejaVuSans-46"/>
       <use x="95.410156" xlink:href="#DejaVuSans-53"/>
      </g>
     </g>
    </g>
    <g id="ytick_7">
     <g id="line2d_12">
      <g>
       <use style="stroke:#000000;stroke-width:0.8;" x="57.6" xlink:href="#m228892d971" y="54.3403"/>
      </g>
     </g>
     <g id="text_13">
      <!-- 2.0 -->
      <g transform="translate(34.696875 58.139519)scale(0.1 -0.1)">
       <use xlink:href="#DejaVuSans-50"/>
       <use x="63.623047" xlink:href="#DejaVuSans-46"/>
       <use x="95.410156" xlink:href="#DejaVuSans-48"/>
      </g>
     </g>
    </g>
    <g id="text_14">
     <!-- 1e12 -->
     <g transform="translate(57.6 38.472)scale(0.1 -0.1)">
      <use xlink:href="#DejaVuSans-49"/>
      <use x="63.623047" xlink:href="#DejaVuSans-101"/>
      <use x="125.146484" xlink:href="#DejaVuSans-49"/>
      <use x="188.769531" xlink:href="#DejaVuSans-50"/>
     </g>
    </g>
   </g>
   <g id="line2d_13">
    <path clip-path="url(#p1c2180fe0d)" d="M 105.331203 202.444524 
L 105.331203 202.444524 
L 105.331203 202.444524 
L 105.331203 202.444524 
L 105.3312 202.444526 
L 105.331168 202.44454 
L 105.330853 202.444682 
L 105.330287 202.444938 
L 105.329723 202.445197 
L 105.32916 202.445456 
L 105.328599 202.445717 
L 105.328039 202.44598 
L 105.327482 202.446245 
L 105.326926 202.44651 
L 105.326371 202.446778 
L 105.325819 202.447047 
L 105.325269 202.447317 
L 105.32472 202.447589 
L 105.324174 202.447863 
L 105.323629 202.448138 
L 105.323086 202.448414 
L 105.322546 202.448692 
L 105.322007 202.448972 
L 105.32147 202.449253 
L 105.320935 202.449535 
L 105.320402 202.449819 
L 105.319871 202.450104 
L 105.319342 202.450391 
L 105.318816 202.45068 
L 105.318291 202.45097 
L 105.317769 202.451261 
L 105.31725 202.451554 
L 105.316732 202.451848 
L 105.316217 202.452144 
L 105.315704 202.452441 
L 105.315193 202.45274 
L 105.314685 202.453039 
L 105.314179 202.453341 
L 105.313676 202.453643 
L 105.313175 202.453947 
L 105.312677 202.454252 
L 105.312181 202.454558 
L 105.311687 202.454865 
L 105.311196 202.455174 
L 105.310707 202.455483 
L 105.31022 202.455794 
L 105.309735 202.456106 
L 105.309253 202.456419 
L 105.308773 202.456733 
L 105.308295 202.457049 
L 105.307819 202.457365 
L 105.307345 202.457683 
L 105.306874 202.458002 
L 105.306404 202.458322 
L 105.305937 202.458644 
L 105.305472 202.458966 
L 105.305009 202.45929 
L 105.304549 202.459616 
L 105.30409 202.459942 
L 105.303634 202.46027 
L 105.30318 202.460599 
L 105.302729 202.460929 
L 105.302279 202.46126 
L 105.301832 202.461593 
L 105.301388 202.461927 
L 105.300945 202.462262 
L 105.300506 202.462599 
L 105.300068 202.462937 
L 105.299633 202.463276 
L 105.2992 202.463616 
L 105.29877 202.463958 
L 105.298342 202.464301 
L 105.297917 202.464645 
L 105.297494 202.464991 
L 105.297074 202.465338 
L 105.296656 202.465687 
L 105.296241 202.466036 
L 105.295829 202.466388 
L 105.29542 202.46674 
L 105.295014 202.467094 
L 105.29461 202.467449 
L 105.29421 202.467805 
L 105.293813 202.468163 
L 105.293419 202.468522 
L 105.293028 202.468882 
L 105.29264 202.469243 
L 105.292256 202.469606 
L 105.291875 202.46997 
L 105.291497 202.470334 
L 105.291123 202.4707 
L 105.290752 202.471067 
L 105.290385 202.471434 
L 105.290021 202.471802 
L 105.28966 202.472172 
L 105.289302 202.472542 
L 105.288948 202.472912 
L 105.288597 202.473284 
L 105.28825 202.473657 
L 105.287906 202.47403 
L 105.287565 202.474404 
L 105.287227 202.474778 
L 105.286892 202.475153 
L 105.286561 202.475529 
L 105.286233 202.475906 
L 105.285908 202.476283 
L 105.285587 202.47666 
L 105.285465 202.476805 
" style="fill:none;stroke:#000000;stroke-linecap:square;stroke-width:1.5;"/>
   </g>
   <g id="line2d_14">
    <path clip-path="url(#p1c2180fe0d)" d="M 102.926608 207.415196 
L 102.926617 207.415197 
L 102.926699 207.415211 
L 102.927528 207.415351 
L 102.935811 207.416748 
L 103.018802 207.430386 
L 103.862312 207.533631 
L 105.41775 207.564895 
L 106.969398 207.393409 
L 108.452617 207.0173 
L 109.796633 206.438967 
L 110.922405 205.667113 
L 111.741239 204.720222 
L 112.155676 203.631939 
L 112.065902 202.458555 
L 111.387127 201.287157 
L 110.083702 200.238966 
L 108.216367 199.456593 
L 105.973911 199.06572 
L 103.643913 199.124575 
L 101.519899 199.600541 
L 99.812551 200.394236 
L 98.622605 201.384766 
L 97.964427 202.462507 
L 97.802093 203.541316 
L 98.076746 204.558118 
L 98.722184 205.468103 
L 99.67216 206.239641 
L 100.862972 206.850259 
L 102.233663 207.283788 
L 103.725062 207.528516 
L 105.278245 207.576117 
L 106.832667 207.42124 
L 108.324068 207.06173 
L 109.682246 206.499587 
L 110.828893 205.742911 
L 111.676111 204.809229 
L 112.127028 203.730718 
L 112.081586 202.561526 
L 111.452783 201.385996 
L 110.199329 200.322744 
L 108.372468 199.513702 
L 106.15063 199.087853 
L 103.816266 199.110394 
L 101.666327 199.555764 
L 99.920176 200.328329 
L 98.68704 201.307415 
L 97.98692 202.38177 
L 97.786776 203.463236 
L 98.028866 204.487009 
L 98.647204 205.406985 
L 99.575374 206.190631 
L 100.749412 206.814848 
L 102.108136 207.263042 
L 103.592258 207.523192 
L 105.142873 207.58673 
L 106.699617 207.448075 
L 108.198592 207.104801 
L 109.570134 206.558533 
L 110.736645 205.816799 
L 111.611007 204.89623 
L 112.096958 203.827612 
L 112.094305 202.663053 
L 111.514094 201.484245 
L 110.309834 200.407186 
L 108.52373 199.572911 
L 106.323932 199.11327 
L 103.987247 199.100097 
L 101.813345 199.514885 
L 100.02989 200.265985 
L 98.754579 201.233167 
L 98.013182 202.303661 
L 97.775663 203.387333 
L 97.985476 204.417651 
L 98.576888 205.347213 
L 99.483338 206.14257 
L 100.640601 206.779997 
L 101.987268 207.242468 
L 103.463924 207.517654 
L 105.011671 207.596748 
L 106.57031 207.473945 
L 108.076278 207.146561 
L 109.460428 206.615866 
L 110.645842 205.888848 
L 111.54617 204.981292 
L 112.065778 203.922669 
L 112.104431 202.763144 
L 111.571458 201.581848 
L 110.415581 200.492168 
L 108.670414 199.63404 
L 106.493948 199.14179 
L 104.156899 199.093536 
L 101.960964 199.477801 
L 100.141705 200.207138 
L 98.825252 201.161975 
L 98.043261 202.228151 
L 97.768822 203.313591 
L 97.946664 204.350042 
L 98.511349 205.288796 
L 99.396187 206.095479 
L 100.536701 206.745734 
L 101.871251 207.222099 
L 103.340286 207.511939 
L 104.884903 207.606208 
L 106.445048 207.49888 
L 107.957474 207.187026 
L 108.509267 207.01367 
" style="fill:none;stroke:#008000;stroke-linecap:square;stroke-width:1.5;"/>
   </g>
   <g id="line2d_15">
    <path clip-path="url(#p1c2180fe0d)" d="M 92.852488 205.781775 
L 92.852491 205.781779 
L 92.852523 205.78182 
L 92.852844 205.782236 
L 92.856054 205.786393 
L 92.888376 205.827902 
L 93.233586 206.23674 
L 93.952573 206.940712 
L 94.790488 207.597697 
L 95.738339 208.200942 
L 96.786027 208.744281 
L 97.922459 209.222195 
L 99.135671 209.629865 
L 100.412952 209.963211 
L 101.740988 210.218933 
L 103.105992 210.394535 
L 104.493849 210.488345 
L 105.890255 210.499527 
L 107.280863 210.428081 
L 108.651422 210.274844 
L 109.987913 210.041471 
L 111.276688 209.730423 
L 112.504595 209.344933 
L 113.65911 208.888978 
L 114.728453 208.367238 
L 115.701697 207.785048 
L 116.56888 207.148351 
L 117.321094 206.463639 
L 117.950578 205.737889 
L 118.450791 204.9785 
L 118.816481 204.193225 
L 119.043743 203.390088 
L 119.130057 202.577318 
L 119.074327 201.763262 
L 118.876896 200.956305 
L 118.539553 200.164788 
L 118.065524 199.396924 
L 117.459451 198.660714 
L 116.727357 197.963862 
L 115.876592 197.313697 
L 114.915771 196.717093 
L 113.854691 196.180393 
L 112.704243 195.709338 
L 111.476301 195.309002 
L 110.183607 194.983733 
L 108.839637 194.737098 
L 107.458463 194.571842 
L 106.054603 194.489848 
L 104.642865 194.492116 
L 103.238185 194.57874 
L 101.855462 194.748909 
L 100.50939 195.000906 
L 99.214297 195.332126 
L 97.983977 195.739102 
L 96.831538 196.217542 
L 95.769253 196.762377 
L 94.808417 197.367814 
L 93.959222 198.027404 
L 93.230646 198.734117 
L 92.630347 199.480417 
L 92.164587 200.258353 
L 91.838162 201.059646 
L 91.654356 201.875784 
L 91.614915 202.698119 
L 91.720029 203.517958 
L 91.968345 204.326667 
L 92.35699 205.115756 
L 92.881615 205.876976 
L 93.536447 206.602405 
L 94.314368 207.284527 
L 95.206999 207.916313 
L 96.204796 208.491286 
L 97.297162 209.003588 
L 98.472566 209.448032 
L 99.718663 209.820155 
L 101.022433 210.116251 
L 102.370314 210.333406 
L 103.748341 210.469524 
L 105.142289 210.523337 
L 106.537817 210.494414 
L 107.920605 210.383165 
L 109.276498 210.190825 
L 110.591639 209.919443 
L 111.852605 209.571859 
L 113.046535 209.151672 
L 114.161249 208.663205 
L 115.185369 208.111465 
L 116.108423 207.502087 
L 116.920948 206.841289 
L 117.614585 206.135807 
L 118.182153 205.392832 
L 118.617733 204.619944 
L 118.916718 203.825038 
L 119.075872 203.016248 
L 119.093365 202.20187 
L 118.968798 201.390281 
L 118.703216 200.589856 
L 118.299109 199.808883 
L 117.760397 199.055484 
L 117.092397 198.337525 
L 116.301786 197.66254 
L 115.396537 197.037644 
L 114.385852 196.469464 
L 113.280073 195.964058 
L 112.090584 195.526851 
L 110.829695 195.162569 
L 110.331165 195.043352 
" style="fill:none;stroke:#0000ff;stroke-linecap:square;stroke-width:1.5;"/>
   </g>
   <g id="line2d_16">
    <path clip-path="url(#p1c2180fe0d)" d="M 107.556639 191.6112 
L 107.556633 191.6112 
L 107.556565 191.611195 
L 107.555894 191.611151 
L 107.549176 191.610708 
L 107.48198 191.606356 
L 106.80865 191.570469 
L 105.592762 191.540951 
L 104.375789 191.556629 
L 103.162773 191.61747 
L 101.958749 191.723241 
L 100.768711 191.873513 
L 99.597596 192.067665 
L 98.450257 192.304881 
L 97.331439 192.584159 
L 96.245759 192.904317 
L 95.197681 193.263993 
L 94.191497 193.661658 
L 93.231309 194.095623 
L 92.321008 194.564044 
L 91.464256 195.064936 
L 90.664474 195.596181 
L 89.924826 196.15554 
L 89.248205 196.740662 
L 88.637225 197.349099 
L 88.094208 197.978315 
L 87.62118 198.625701 
L 87.219864 199.288584 
L 86.891672 199.964244 
L 86.637709 200.649921 
L 86.458766 201.342834 
L 86.355324 202.040187 
L 86.327552 202.739184 
L 86.375315 203.43704 
L 86.498175 204.130994 
L 86.695398 204.818317 
L 86.965959 205.496326 
L 87.308554 206.16239 
L 87.721604 206.813944 
L 88.203268 207.448494 
L 88.751452 208.06363 
L 89.36382 208.65703 
L 90.037807 209.226469 
L 90.77063 209.769827 
L 91.559302 210.285094 
L 92.400643 210.770377 
L 93.291295 211.223905 
L 94.227737 211.644033 
L 95.206295 212.029248 
L 96.22316 212.378171 
L 97.2744 212.689561 
L 98.355975 212.962321 
L 99.463751 213.195495 
L 100.593514 213.388274 
L 101.740985 213.539996 
L 102.901834 213.650148 
L 104.071694 213.718366 
L 105.246175 213.744438 
L 106.420878 213.7283 
L 107.59141 213.670038 
L 108.753396 213.569887 
L 109.902496 213.428232 
L 111.034415 213.245604 
L 112.144916 213.022677 
L 113.22984 212.760271 
L 114.285111 212.459346 
L 115.306755 212.121 
L 116.290908 211.746465 
L 117.233834 211.337107 
L 118.131935 210.894417 
L 118.981762 210.420013 
L 119.780031 209.91563 
L 120.523629 209.383119 
L 121.209633 208.824437 
L 121.835316 208.241649 
L 122.398158 207.636914 
L 122.895861 207.012484 
L 123.326353 206.370693 
L 123.687804 205.713955 
L 123.97863 205.04475 
L 124.197504 204.36562 
L 124.343363 203.679162 
L 124.415415 202.988013 
L 124.413147 202.294846 
L 124.336329 201.602361 
L 124.185017 200.913268 
L 123.95956 200.230285 
L 123.6606 199.556123 
L 123.289075 198.893476 
L 122.846216 198.24501 
L 122.333551 197.613351 
L 121.752897 197.001075 
L 121.106361 196.410696 
L 120.39633 195.844653 
L 119.625467 195.305303 
L 118.796706 194.794903 
L 117.913235 194.315607 
L 116.97849 193.869447 
L 115.996141 193.458331 
L 114.970078 193.084024 
L 113.904396 192.748148 
L 112.803377 192.452166 
L 111.671472 192.197378 
L 110.513282 191.98491 
L 109.333538 191.815712 
L 108.13708 191.690548 
L 107.675963 191.654437 
" style="fill:none;stroke:#ffd700;stroke-linecap:square;stroke-width:1.5;"/>
   </g>
   <g id="line2d_17">
    <path clip-path="url(#p1c2180fe0d)" d="M 120.948357 188.690844 
L 120.948352 188.690842 
L 120.948309 188.690822 
L 120.947878 188.690621 
L 120.943567 188.688619 
L 120.900424 188.668627 
L 120.465853 188.471513 
L 119.669893 188.129789 
L 118.856988 187.804981 
L 118.028249 187.497311 
L 117.184786 187.206971 
L 116.327707 186.934134 
L 115.458113 186.678943 
L 114.577101 186.441522 
L 113.685762 186.22197 
L 112.785176 186.020365 
L 111.876416 185.836762 
L 110.960541 185.671196 
L 110.038601 185.523683 
L 109.111633 185.394219 
L 108.180661 185.282781 
L 107.246695 185.189328 
L 106.31073 185.113802 
L 105.373746 185.05613 
L 104.436709 185.01622 
L 103.500567 184.993967 
L 102.566253 184.989251 
L 101.634683 185.001937 
L 100.706756 185.031877 
L 99.783355 185.078912 
L 98.865345 185.142867 
L 97.953573 185.223558 
L 97.048871 185.320788 
L 96.152051 185.43435 
L 95.263908 185.564028 
L 94.38522 185.709592 
L 93.516749 185.870807 
L 92.659237 186.047425 
L 91.81341 186.239193 
L 90.979977 186.445847 
L 90.15963 186.667115 
L 89.353041 186.902719 
L 88.56087 187.152372 
L 87.783756 187.415781 
L 87.022322 187.692646 
L 86.277178 187.982658 
L 85.548911 188.285507 
L 84.838098 188.600871 
L 84.145297 188.928426 
L 83.471048 189.267841 
L 82.815878 189.618779 
L 82.180298 189.9809 
L 81.564801 190.353856 
L 80.969867 190.737295 
L 80.395957 191.13086 
L 79.843521 191.53419 
L 79.312989 191.946919 
L 78.804779 192.368677 
L 78.319293 192.799087 
L 77.856916 193.237772 
L 77.41802 193.684346 
L 77.002961 194.138423 
L 76.612079 194.599611 
L 76.245701 195.067513 
L 75.904136 195.54173 
L 75.587679 196.021857 
L 75.296611 196.507488 
L 75.031195 196.998211 
L 74.791681 197.49361 
L 74.578303 197.993267 
L 74.391277 198.496759 
L 74.230807 199.00366 
L 74.097078 199.513539 
L 73.99026 200.025965 
L 73.910507 200.540499 
L 73.857956 201.056702 
L 73.832727 201.574129 
L 73.834924 202.092334 
L 73.864633 202.610867 
L 73.921922 203.129273 
L 74.006843 203.647097 
L 74.119427 204.163878 
L 74.25969 204.679153 
L 74.427626 205.192457 
L 74.623212 205.703321 
L 74.846403 206.211275 
L 75.097137 206.715843 
L 75.375328 207.21655 
L 75.680873 207.712918 
L 76.013644 208.204466 
L 76.373493 208.690711 
L 76.76025 209.171169 
L 77.17372 209.645355 
L 77.613686 210.11278 
L 78.079908 210.572958 
L 78.572119 211.025398 
L 79.090029 211.469613 
L 79.633322 211.905112 
L 80.201653 212.331406 
L 80.794654 212.748007 
L 81.411928 213.154427 
L 82.053049 213.550181 
L 82.717564 213.934784 
L 83.40499 214.307755 
L 84.114814 214.668614 
L 84.846493 215.016889 
L 85.132072 215.146701 
" style="fill:none;stroke:#bfbf00;stroke-linecap:square;stroke-width:1.5;"/>
   </g>
   <g id="line2d_18">
    <path clip-path="url(#p1c2180fe0d)" d="M 161.306031 248.663322 
L 161.306034 248.663321 
L 161.306057 248.66331 
L 161.306292 248.663204 
L 161.308641 248.662146 
L 161.332123 248.651565 
L 161.566663 248.545518 
L 161.987432 248.353613 
L 162.406515 248.160342 
L 162.823899 247.96571 
L 163.23957 247.769721 
L 163.653514 247.572382 
L 164.065717 247.373696 
L 164.476166 247.173668 
L 164.884847 246.972304 
L 165.291747 246.769609 
L 165.696853 246.565587 
L 166.10015 246.360244 
L 166.501626 246.153585 
L 166.901266 245.945616 
L 167.299058 245.736341 
L 167.694989 245.525766 
L 168.089045 245.313897 
L 168.481213 245.100739 
L 168.87148 244.886297 
L 169.259832 244.670577 
L 169.646257 244.453585 
L 170.030741 244.235326 
L 170.413272 244.015806 
L 170.793837 243.795031 
L 171.172422 243.573006 
L 171.549016 243.349738 
L 171.923604 243.125232 
L 172.296175 242.899495 
L 172.666715 242.672531 
L 173.035212 242.444348 
L 173.401654 242.214952 
L 173.766027 241.984348 
L 174.12832 241.752543 
L 174.48852 241.519544 
L 174.846614 241.285355 
L 175.20259 241.049984 
L 175.556436 240.813438 
L 175.90814 240.575721 
L 176.257689 240.336842 
L 176.605071 240.096807 
L 176.950275 239.855621 
L 177.293288 239.613293 
L 177.634098 239.369828 
L 177.972693 239.125233 
L 178.309062 238.879515 
L 178.643193 238.63268 
L 178.975074 238.384737 
L 179.304693 238.135691 
L 179.632038 237.885549 
L 179.957099 237.634319 
L 180.279864 237.382007 
L 180.600321 237.128621 
L 180.918459 236.874168 
L 181.234267 236.618655 
L 181.547734 236.362089 
L 181.858847 236.104477 
L 182.167597 235.845827 
L 182.473973 235.586146 
L 182.777962 235.325442 
L 183.079555 235.063722 
L 183.378741 234.800993 
L 183.675508 234.537263 
L 183.969847 234.27254 
L 184.261746 234.006831 
L 184.551196 233.740144 
L 184.838185 233.472486 
L 185.122703 233.203866 
L 185.40474 232.934291 
L 185.684285 232.663768 
L 185.96133 232.392307 
L 186.235862 232.119914 
L 186.507873 231.846598 
L 186.777352 231.572367 
L 187.04429 231.297229 
L 187.308677 231.021191 
L 187.570503 230.744262 
L 187.829758 230.466451 
L 188.086433 230.187765 
L 188.340518 229.908212 
L 188.592005 229.627801 
L 188.840883 229.346541 
L 189.087144 229.064438 
L 189.330778 228.781503 
L 189.571776 228.497743 
L 189.810129 228.213167 
L 190.045829 227.927784 
L 190.278866 227.641601 
L 190.509232 227.354628 
L 190.736918 227.066872 
L 190.961916 226.778344 
L 191.184216 226.489051 
L 191.403812 226.199002 
L 191.620694 225.908206 
L 191.834854 225.616672 
L 192.046284 225.324409 
L 192.254975 225.031425 
L 192.460921 224.737729 
L 192.664113 224.443331 
L 192.864544 224.148238 
L 193.062205 223.852462 
L 193.13709 223.739127 
" style="fill:none;stroke:#bf00bf;stroke-linecap:square;stroke-width:1.5;"/>
   </g>
   <g id="line2d_19">
    <path clip-path="url(#p1c2180fe0d)" d="M 208.482248 295.488 
L 208.48225 295.487999 
L 208.482266 295.487993 
L 208.482436 295.487925 
L 208.484128 295.487248 
L 208.501045 295.480476 
L 208.670151 295.412697 
L 208.974149 295.290436 
L 209.277735 295.167805 
L 209.580908 295.044806 
L 209.883666 294.921438 
L 210.186009 294.797702 
L 210.487934 294.673598 
L 210.789441 294.549128 
L 211.090528 294.42429 
L 211.391194 294.299087 
L 211.691438 294.173517 
L 211.991259 294.047582 
L 212.290655 293.921282 
L 212.589625 293.794618 
L 212.888167 293.667589 
L 213.186282 293.540197 
L 213.483966 293.412442 
L 213.78122 293.284324 
L 214.078041 293.155843 
L 214.374429 293.027001 
L 214.670382 292.897797 
L 214.965899 292.768232 
L 215.260979 292.638306 
L 215.55562 292.508021 
L 215.849821 292.377376 
L 216.143582 292.246372 
L 216.4369 292.115009 
L 216.729775 291.983287 
L 217.022205 291.851208 
L 217.314189 291.718772 
L 217.605726 291.585979 
L 217.896814 291.452829 
L 218.187453 291.319324 
L 218.477641 291.185463 
L 218.767376 291.051247 
L 219.056659 290.916676 
L 219.345486 290.781752 
L 219.633858 290.646474 
L 219.921773 290.510843 
L 220.209229 290.374859 
L 220.496226 290.238523 
L 220.782762 290.101835 
L 221.068835 289.964796 
L 221.354446 289.827407 
L 221.639592 289.689667 
L 221.924273 289.551578 
L 222.208486 289.413139 
L 222.492232 289.274351 
L 222.775508 289.135216 
L 223.058313 288.995732 
L 223.340647 288.855901 
L 223.622508 288.715724 
L 223.903894 288.5752 
L 224.184805 288.43433 
L 224.465239 288.293115 
L 224.745195 288.151556 
L 225.024673 288.009652 
L 225.30367 287.867404 
L 225.582185 287.724813 
L 225.860218 287.581879 
L 226.137767 287.438603 
L 226.41483 287.294985 
L 226.691408 287.151026 
L 226.967497 287.006726 
L 227.243098 286.862086 
L 227.518209 286.717106 
L 227.792829 286.571787 
L 228.066957 286.42613 
L 228.340591 286.280134 
L 228.61373 286.133801 
L 228.886373 285.98713 
L 229.158519 285.840123 
L 229.430167 285.69278 
L 229.701315 285.545101 
L 229.971963 285.397087 
L 230.242108 285.248739 
L 230.511751 285.100057 
L 230.780889 284.951041 
L 231.049522 284.801693 
L 231.317648 284.652012 
L 231.585266 284.501999 
L 231.852375 284.351656 
L 232.118974 284.200981 
L 232.385062 284.049976 
L 232.650637 283.898642 
L 232.915698 283.746978 
L 233.180244 283.594986 
L 233.444275 283.442666 
L 233.707788 283.290018 
L 233.970782 283.137044 
L 234.233257 282.983743 
L 234.495211 282.830116 
L 234.756644 282.676164 
L 235.017553 282.521888 
L 235.277938 282.367287 
L 235.537797 282.212362 
L 235.79713 282.057115 
L 236.055935 281.901545 
L 236.314211 281.745653 
L 236.571957 281.58944 
L 236.670422 281.529592 
" style="fill:none;stroke:#00bfbf;stroke-linecap:square;stroke-width:1.5;"/>
   </g>
   <g id="line2d_20">
    <path clip-path="url(#p1c2180fe0d)" d="M 398.487273 64.852003 
L 398.487272 64.852002 
L 398.487262 64.851996 
L 398.487165 64.851931 
L 398.486199 64.851284 
L 398.476533 64.844812 
L 398.379849 64.780107 
L 398.205742 64.66372 
L 398.031486 64.547403 
L 397.85708 64.431157 
L 397.682525 64.314981 
L 397.50782 64.198876 
L 397.332966 64.082842 
L 397.157962 63.966878 
L 396.98281 63.850986 
L 396.807508 63.735164 
L 396.632057 63.619413 
L 396.456457 63.503734 
L 396.280708 63.388125 
L 396.104811 63.272588 
L 395.928764 63.157122 
L 395.752569 63.041727 
L 395.576225 62.926404 
L 395.399733 62.811152 
L 395.223093 62.695972 
L 395.046304 62.580863 
L 394.869367 62.465826 
L 394.692281 62.35086 
L 394.515048 62.235967 
L 394.337666 62.121145 
L 394.160137 62.006395 
L 393.982459 61.891717 
L 393.804634 61.777111 
L 393.626661 61.662577 
L 393.448541 61.548116 
L 393.270272 61.433726 
L 393.091857 61.319409 
L 392.913294 61.205164 
L 392.734584 61.090992 
L 392.555726 60.976892 
L 392.376721 60.862864 
L 392.19757 60.74891 
L 392.018271 60.635027 
L 391.838825 60.521218 
L 391.659233 60.407481 
L 391.479493 60.293818 
L 391.299607 60.180227 
L 391.119575 60.066709 
L 390.939396 59.953264 
L 390.75907 59.839893 
L 390.578599 59.726594 
L 390.39798 59.613369 
L 390.217216 59.500217 
L 390.036306 59.387139 
L 389.855249 59.274134 
L 389.674047 59.161202 
L 389.492699 59.048344 
L 389.311205 58.93556 
L 389.129565 58.822849 
L 388.94778 58.710212 
L 388.765849 58.597649 
L 388.583773 58.48516 
L 388.401551 58.372745 
L 388.219184 58.260404 
L 388.036672 58.148136 
L 387.854014 58.035943 
L 387.671212 57.923825 
L 387.488265 57.81178 
L 387.305173 57.69981 
L 387.121936 57.587914 
L 386.938554 57.476093 
L 386.755028 57.364346 
L 386.571357 57.252674 
L 386.387542 57.141076 
L 386.203582 57.029553 
L 386.019478 56.918105 
L 385.83523 56.806732 
L 385.650837 56.695433 
L 385.466301 56.58421 
L 385.281621 56.473062 
L 385.096797 56.361988 
L 384.911829 56.25099 
L 384.726717 56.140067 
L 384.541461 56.02922 
L 384.356063 55.918448 
L 384.17052 55.807751 
L 383.984834 55.697129 
L 383.799005 55.586584 
L 383.613033 55.476113 
L 383.426918 55.365719 
L 383.240659 55.2554 
L 383.054258 55.145157 
L 382.867714 55.03499 
L 382.681027 54.924898 
L 382.494197 54.814883 
L 382.307225 54.704944 
L 382.12011 54.595081 
L 381.932853 54.485294 
L 381.745453 54.375583 
L 381.557911 54.265948 
L 381.370227 54.15639 
L 381.182401 54.046908 
L 380.994432 53.937503 
L 380.806322 53.828174 
L 380.61807 53.718922 
L 380.429676 53.609747 
L 380.357565 53.568 
" style="fill:none;stroke:#ff0000;stroke-linecap:square;stroke-width:1.5;"/>
   </g>
   <g id="line2d_21">
    <path clip-path="url(#p1c2180fe0d)" d="M 208.482248 295.488 
L 208.48225 295.487999 
L 208.482266 295.487993 
L 208.482436 295.487925 
L 208.484128 295.487248 
L 208.501045 295.480476 
L 208.670151 295.412697 
L 208.974149 295.290436 
L 209.277735 295.167805 
L 209.580908 295.044806 
L 209.883666 294.921438 
L 210.186009 294.797702 
L 210.487934 294.673598 
L 210.789441 294.549128 
L 211.090528 294.42429 
L 211.391194 294.299087 
L 211.691438 294.173517 
L 211.991259 294.047582 
L 212.290655 293.921282 
L 212.589625 293.794618 
L 212.888167 293.667589 
L 213.186282 293.540197 
L 213.483966 293.412442 
L 213.78122 293.284324 
L 214.078041 293.155843 
L 214.374429 293.027001 
L 214.670382 292.897797 
L 214.965899 292.768232 
L 215.260979 292.638306 
L 215.55562 292.508021 
L 215.849821 292.377376 
L 216.143582 292.246372 
L 216.4369 292.115009 
L 216.729775 291.983287 
L 217.022205 291.851208 
L 217.314189 291.718772 
L 217.605726 291.585979 
L 217.896814 291.452829 
L 218.187453 291.319324 
L 218.477641 291.185463 
L 218.767376 291.051247 
L 219.056659 290.916676 
L 219.345486 290.781752 
L 219.633858 290.646474 
L 219.921773 290.510843 
L 220.209229 290.374859 
L 220.496226 290.238523 
L 220.782762 290.101835 
L 221.068835 289.964796 
L 221.354446 289.827407 
L 221.639592 289.689667 
L 221.924273 289.551578 
L 222.208486 289.413139 
L 222.492232 289.274351 
L 222.775508 289.135216 
L 223.058313 288.995732 
L 223.340647 288.855901 
L 223.622508 288.715724 
L 223.903894 288.5752 
L 224.184805 288.43433 
L 224.465239 288.293115 
L 224.745195 288.151556 
L 225.024673 288.009652 
L 225.30367 287.867404 
L 225.582185 287.724813 
L 225.860218 287.581879 
L 226.137767 287.438603 
L 226.41483 287.294985 
L 226.691408 287.151026 
L 226.967497 287.006726 
L 227.243098 286.862086 
L 227.518209 286.717106 
L 227.792829 286.571787 
L 228.066957 286.42613 
L 228.340591 286.280134 
L 228.61373 286.133801 
L 228.886373 285.98713 
L 229.158519 285.840123 
L 229.430167 285.69278 
L 229.701315 285.545101 
L 229.971963 285.397087 
L 230.242108 285.248739 
L 230.511751 285.100057 
L 230.780889 284.951041 
L 231.049522 284.801693 
L 231.317648 284.652012 
L 231.585266 284.501999 
L 231.852375 284.351656 
L 232.118974 284.200981 
L 232.385062 284.049976 
L 232.650637 283.898642 
L 232.915698 283.746978 
L 233.180244 283.594986 
L 233.444275 283.442666 
L 233.707788 283.290018 
L 233.970782 283.137044 
L 234.233257 282.983743 
L 234.495211 282.830116 
L 234.756644 282.676164 
L 235.017553 282.521888 
L 235.277938 282.367287 
L 235.537797 282.212362 
L 235.79713 282.057115 
L 236.055935 281.901545 
L 236.314211 281.745653 
L 236.571957 281.58944 
L 236.670422 281.529592 
" style="fill:none;stroke:#00ff00;stroke-linecap:square;stroke-width:1.5;"/>
   </g>
   <g id="patch_3">
    <path d="M 57.6 307.584 
L 57.6 41.472 
" style="fill:none;stroke:#000000;stroke-linecap:square;stroke-linejoin:miter;stroke-width:0.8;"/>
   </g>
   <g id="patch_4">
    <path d="M 414.72 307.584 
L 414.72 41.472 
" style="fill:none;stroke:#000000;stroke-linecap:square;stroke-linejoin:miter;stroke-width:0.8;"/>
   </g>
   <g id="patch_5">
    <path d="M 57.6 307.584 
L 414.72 307.584 
" style="fill:none;stroke:#000000;stroke-linecap:square;stroke-linejoin:miter;stroke-width:0.8;"/>
   </g>
   <g id="patch_6">
    <path d="M 57.6 41.472 
L 414.72 41.472 
" style="fill:none;stroke:#000000;stroke-linecap:square;stroke-linejoin:miter;stroke-width:0.8;"/>
   </g>
   <g id="legend_1">
    <g id="patch_7">
     <path d="M 64.6 181.575125 
L 139.33125 181.575125 
Q 141.33125 181.575125 141.33125 179.575125 
L 141.33125 48.472 
Q 141.33125 46.472 139.33125 46.472 
L 64.6 46.472 
Q 62.6 46.472 62.6 48.472 
L 62.6 179.575125 
Q 62.6 181.575125 64.6 181.575125 
z
" style="fill:#ffffff;opacity:0.8;stroke:#cccccc;stroke-linejoin:miter;"/>
    </g>
    <g id="line2d_22">
     <path d="M 66.6 54.570438 
L 86.6 54.570438 
" style="fill:none;stroke:#000000;stroke-linecap:square;stroke-width:1.5;"/>
    </g>
    <g id="line2d_23"/>
    <g id="text_15">
     <!-- Sun -->
     <defs>
      <path d="M 53.515625 70.515625 
L 53.515625 60.890625 
Q 47.90625 63.578125 42.921875 64.890625 
Q 37.9375 66.21875 33.296875 66.21875 
Q 25.25 66.21875 20.875 63.09375 
Q 16.5 59.96875 16.5 54.203125 
Q 16.5 49.359375 19.40625 46.890625 
Q 22.3125 44.4375 30.421875 42.921875 
L 36.375 41.703125 
Q 47.40625 39.59375 52.65625 34.296875 
Q 57.90625 29 57.90625 20.125 
Q 57.90625 9.515625 50.796875 4.046875 
Q 43.703125 -1.421875 29.984375 -1.421875 
Q 24.8125 -1.421875 18.96875 -0.25 
Q 13.140625 0.921875 6.890625 3.21875 
L 6.890625 13.375 
Q 12.890625 10.015625 18.65625 8.296875 
Q 24.421875 6.59375 29.984375 6.59375 
Q 38.421875 6.59375 43.015625 9.90625 
Q 47.609375 13.234375 47.609375 19.390625 
Q 47.609375 24.75 44.3125 27.78125 
Q 41.015625 30.8125 33.5 32.328125 
L 27.484375 33.5 
Q 16.453125 35.6875 11.515625 40.375 
Q 6.59375 45.0625 6.59375 53.421875 
Q 6.59375 63.09375 13.40625 68.65625 
Q 20.21875 74.21875 32.171875 74.21875 
Q 37.3125 74.21875 42.625 73.28125 
Q 47.953125 72.359375 53.515625 70.515625 
z
" id="DejaVuSans-83"/>
      <path d="M 8.5 21.578125 
L 8.5 54.6875 
L 17.484375 54.6875 
L 17.484375 21.921875 
Q 17.484375 14.15625 20.5 10.265625 
Q 23.53125 6.390625 29.59375 6.390625 
Q 36.859375 6.390625 41.078125 11.03125 
Q 45.3125 15.671875 45.3125 23.6875 
L 45.3125 54.6875 
L 54.296875 54.6875 
L 54.296875 0 
L 45.3125 0 
L 45.3125 8.40625 
Q 42.046875 3.421875 37.71875 1 
Q 33.40625 -1.421875 27.6875 -1.421875 
Q 18.265625 -1.421875 13.375 4.4375 
Q 8.5 10.296875 8.5 21.578125 
z
M 31.109375 56 
z
" id="DejaVuSans-117"/>
      <path d="M 54.890625 33.015625 
L 54.890625 0 
L 45.90625 0 
L 45.90625 32.71875 
Q 45.90625 40.484375 42.875 44.328125 
Q 39.84375 48.1875 33.796875 48.1875 
Q 26.515625 48.1875 22.3125 43.546875 
Q 18.109375 38.921875 18.109375 30.90625 
L 18.109375 0 
L 9.078125 0 
L 9.078125 54.6875 
L 18.109375 54.6875 
L 18.109375 46.1875 
Q 21.34375 51.125 25.703125 53.5625 
Q 30.078125 56 35.796875 56 
Q 45.21875 56 50.046875 50.171875 
Q 54.890625 44.34375 54.890625 33.015625 
z
" id="DejaVuSans-110"/>
     </defs>
     <g transform="translate(94.6 58.070438)scale(0.1 -0.1)">
      <use xlink:href="#DejaVuSans-83"/>
      <use x="63.476562" xlink:href="#DejaVuSans-117"/>
      <use x="126.855469" xlink:href="#DejaVuSans-110"/>
     </g>
    </g>
    <g id="line2d_24">
     <path d="M 66.6 69.248563 
L 86.6 69.248563 
" style="fill:none;stroke:#008000;stroke-linecap:square;stroke-width:1.5;"/>
    </g>
    <g id="line2d_25"/>
    <g id="text_16">
     <!-- Mercury -->
     <defs>
      <path d="M 9.8125 72.90625 
L 24.515625 72.90625 
L 43.109375 23.296875 
L 61.8125 72.90625 
L 76.515625 72.90625 
L 76.515625 0 
L 66.890625 0 
L 66.890625 64.015625 
L 48.09375 14.015625 
L 38.1875 14.015625 
L 19.390625 64.015625 
L 19.390625 0 
L 9.8125 0 
z
" id="DejaVuSans-77"/>
      <path d="M 41.109375 46.296875 
Q 39.59375 47.171875 37.8125 47.578125 
Q 36.03125 48 33.890625 48 
Q 26.265625 48 22.1875 43.046875 
Q 18.109375 38.09375 18.109375 28.8125 
L 18.109375 0 
L 9.078125 0 
L 9.078125 54.6875 
L 18.109375 54.6875 
L 18.109375 46.1875 
Q 20.953125 51.171875 25.484375 53.578125 
Q 30.03125 56 36.53125 56 
Q 37.453125 56 38.578125 55.875 
Q 39.703125 55.765625 41.0625 55.515625 
z
" id="DejaVuSans-114"/>
      <path d="M 48.78125 52.59375 
L 48.78125 44.1875 
Q 44.96875 46.296875 41.140625 47.34375 
Q 37.3125 48.390625 33.40625 48.390625 
Q 24.65625 48.390625 19.8125 42.84375 
Q 14.984375 37.3125 14.984375 27.296875 
Q 14.984375 17.28125 19.8125 11.734375 
Q 24.65625 6.203125 33.40625 6.203125 
Q 37.3125 6.203125 41.140625 7.25 
Q 44.96875 8.296875 48.78125 10.40625 
L 48.78125 2.09375 
Q 45.015625 0.34375 40.984375 -0.53125 
Q 36.96875 -1.421875 32.421875 -1.421875 
Q 20.0625 -1.421875 12.78125 6.34375 
Q 5.515625 14.109375 5.515625 27.296875 
Q 5.515625 40.671875 12.859375 48.328125 
Q 20.21875 56 33.015625 56 
Q 37.15625 56 41.109375 55.140625 
Q 45.0625 54.296875 48.78125 52.59375 
z
" id="DejaVuSans-99"/>
      <path d="M 32.171875 -5.078125 
Q 28.375 -14.84375 24.75 -17.8125 
Q 21.140625 -20.796875 15.09375 -20.796875 
L 7.90625 -20.796875 
L 7.90625 -13.28125 
L 13.1875 -13.28125 
Q 16.890625 -13.28125 18.9375 -11.515625 
Q 21 -9.765625 23.484375 -3.21875 
L 25.09375 0.875 
L 2.984375 54.6875 
L 12.5 54.6875 
L 29.59375 11.921875 
L 46.6875 54.6875 
L 56.203125 54.6875 
z
" id="DejaVuSans-121"/>
     </defs>
     <g transform="translate(94.6 72.748563)scale(0.1 -0.1)">
      <use xlink:href="#DejaVuSans-77"/>
      <use x="86.279297" xlink:href="#DejaVuSans-101"/>
      <use x="147.802734" xlink:href="#DejaVuSans-114"/>
      <use x="186.666016" xlink:href="#DejaVuSans-99"/>
      <use x="241.646484" xlink:href="#DejaVuSans-117"/>
      <use x="305.025391" xlink:href="#DejaVuSans-114"/>
      <use x="346.138672" xlink:href="#DejaVuSans-121"/>
     </g>
    </g>
    <g id="line2d_26">
     <path d="M 66.6 83.926688 
L 86.6 83.926688 
" style="fill:none;stroke:#0000ff;stroke-linecap:square;stroke-width:1.5;"/>
    </g>
    <g id="line2d_27"/>
    <g id="text_17">
     <!-- Venus -->
     <defs>
      <path d="M 28.609375 0 
L 0.78125 72.90625 
L 11.078125 72.90625 
L 34.1875 11.53125 
L 57.328125 72.90625 
L 67.578125 72.90625 
L 39.796875 0 
z
" id="DejaVuSans-86"/>
      <path d="M 44.28125 53.078125 
L 44.28125 44.578125 
Q 40.484375 46.53125 36.375 47.5 
Q 32.28125 48.484375 27.875 48.484375 
Q 21.1875 48.484375 17.84375 46.4375 
Q 14.5 44.390625 14.5 40.28125 
Q 14.5 37.15625 16.890625 35.375 
Q 19.28125 33.59375 26.515625 31.984375 
L 29.59375 31.296875 
Q 39.15625 29.25 43.1875 25.515625 
Q 47.21875 21.78125 47.21875 15.09375 
Q 47.21875 7.46875 41.1875 3.015625 
Q 35.15625 -1.421875 24.609375 -1.421875 
Q 20.21875 -1.421875 15.453125 -0.5625 
Q 10.6875 0.296875 5.421875 2 
L 5.421875 11.28125 
Q 10.40625 8.6875 15.234375 7.390625 
Q 20.0625 6.109375 24.8125 6.109375 
Q 31.15625 6.109375 34.5625 8.28125 
Q 37.984375 10.453125 37.984375 14.40625 
Q 37.984375 18.0625 35.515625 20.015625 
Q 33.0625 21.96875 24.703125 23.78125 
L 21.578125 24.515625 
Q 13.234375 26.265625 9.515625 29.90625 
Q 5.8125 33.546875 5.8125 39.890625 
Q 5.8125 47.609375 11.28125 51.796875 
Q 16.75 56 26.8125 56 
Q 31.78125 56 36.171875 55.265625 
Q 40.578125 54.546875 44.28125 53.078125 
z
" id="DejaVuSans-115"/>
     </defs>
     <g transform="translate(94.6 87.426688)scale(0.1 -0.1)">
      <use xlink:href="#DejaVuSans-86"/>
      <use x="60.658203" xlink:href="#DejaVuSans-101"/>
      <use x="122.181641" xlink:href="#DejaVuSans-110"/>
      <use x="185.560547" xlink:href="#DejaVuSans-117"/>
      <use x="248.939453" xlink:href="#DejaVuSans-115"/>
     </g>
    </g>
    <g id="line2d_28">
     <path d="M 66.6 98.604813 
L 86.6 98.604813 
" style="fill:none;stroke:#ffd700;stroke-linecap:square;stroke-width:1.5;"/>
    </g>
    <g id="line2d_29"/>
    <g id="text_18">
     <!-- Earth -->
     <defs>
      <path d="M 9.8125 72.90625 
L 55.90625 72.90625 
L 55.90625 64.59375 
L 19.671875 64.59375 
L 19.671875 43.015625 
L 54.390625 43.015625 
L 54.390625 34.71875 
L 19.671875 34.71875 
L 19.671875 8.296875 
L 56.78125 8.296875 
L 56.78125 0 
L 9.8125 0 
z
" id="DejaVuSans-69"/>
      <path d="M 34.28125 27.484375 
Q 23.390625 27.484375 19.1875 25 
Q 14.984375 22.515625 14.984375 16.5 
Q 14.984375 11.71875 18.140625 8.90625 
Q 21.296875 6.109375 26.703125 6.109375 
Q 34.1875 6.109375 38.703125 11.40625 
Q 43.21875 16.703125 43.21875 25.484375 
L 43.21875 27.484375 
z
M 52.203125 31.203125 
L 52.203125 0 
L 43.21875 0 
L 43.21875 8.296875 
Q 40.140625 3.328125 35.546875 0.953125 
Q 30.953125 -1.421875 24.3125 -1.421875 
Q 15.921875 -1.421875 10.953125 3.296875 
Q 6 8.015625 6 15.921875 
Q 6 25.140625 12.171875 29.828125 
Q 18.359375 34.515625 30.609375 34.515625 
L 43.21875 34.515625 
L 43.21875 35.40625 
Q 43.21875 41.609375 39.140625 45 
Q 35.0625 48.390625 27.6875 48.390625 
Q 23 48.390625 18.546875 47.265625 
Q 14.109375 46.140625 10.015625 43.890625 
L 10.015625 52.203125 
Q 14.9375 54.109375 19.578125 55.046875 
Q 24.21875 56 28.609375 56 
Q 40.484375 56 46.34375 49.84375 
Q 52.203125 43.703125 52.203125 31.203125 
z
" id="DejaVuSans-97"/>
      <path d="M 18.3125 70.21875 
L 18.3125 54.6875 
L 36.8125 54.6875 
L 36.8125 47.703125 
L 18.3125 47.703125 
L 18.3125 18.015625 
Q 18.3125 11.328125 20.140625 9.421875 
Q 21.96875 7.515625 27.59375 7.515625 
L 36.8125 7.515625 
L 36.8125 0 
L 27.59375 0 
Q 17.1875 0 13.234375 3.875 
Q 9.28125 7.765625 9.28125 18.015625 
L 9.28125 47.703125 
L 2.6875 47.703125 
L 2.6875 54.6875 
L 9.28125 54.6875 
L 9.28125 70.21875 
z
" id="DejaVuSans-116"/>
      <path d="M 54.890625 33.015625 
L 54.890625 0 
L 45.90625 0 
L 45.90625 32.71875 
Q 45.90625 40.484375 42.875 44.328125 
Q 39.84375 48.1875 33.796875 48.1875 
Q 26.515625 48.1875 22.3125 43.546875 
Q 18.109375 38.921875 18.109375 30.90625 
L 18.109375 0 
L 9.078125 0 
L 9.078125 75.984375 
L 18.109375 75.984375 
L 18.109375 46.1875 
Q 21.34375 51.125 25.703125 53.5625 
Q 30.078125 56 35.796875 56 
Q 45.21875 56 50.046875 50.171875 
Q 54.890625 44.34375 54.890625 33.015625 
z
" id="DejaVuSans-104"/>
     </defs>
     <g transform="translate(94.6 102.104813)scale(0.1 -0.1)">
      <use xlink:href="#DejaVuSans-69"/>
      <use x="63.183594" xlink:href="#DejaVuSans-97"/>
      <use x="124.462891" xlink:href="#DejaVuSans-114"/>
      <use x="165.576172" xlink:href="#DejaVuSans-116"/>
      <use x="204.785156" xlink:href="#DejaVuSans-104"/>
     </g>
    </g>
    <g id="line2d_30">
     <path d="M 66.6 113.282938 
L 86.6 113.282938 
" style="fill:none;stroke:#bfbf00;stroke-linecap:square;stroke-width:1.5;"/>
    </g>
    <g id="line2d_31"/>
    <g id="text_19">
     <!-- Mars -->
     <g transform="translate(94.6 116.782938)scale(0.1 -0.1)">
      <use xlink:href="#DejaVuSans-77"/>
      <use x="86.279297" xlink:href="#DejaVuSans-97"/>
      <use x="147.558594" xlink:href="#DejaVuSans-114"/>
      <use x="188.671875" xlink:href="#DejaVuSans-115"/>
     </g>
    </g>
    <g id="line2d_32">
     <path d="M 66.6 127.961063 
L 86.6 127.961063 
" style="fill:none;stroke:#bf00bf;stroke-linecap:square;stroke-width:1.5;"/>
    </g>
    <g id="line2d_33"/>
    <g id="text_20">
     <!-- Jupiter -->
     <defs>
      <path d="M 9.8125 72.90625 
L 19.671875 72.90625 
L 19.671875 5.078125 
Q 19.671875 -8.109375 14.671875 -14.0625 
Q 9.671875 -20.015625 -1.421875 -20.015625 
L -5.171875 -20.015625 
L -5.171875 -11.71875 
L -2.09375 -11.71875 
Q 4.4375 -11.71875 7.125 -8.046875 
Q 9.8125 -4.390625 9.8125 5.078125 
z
" id="DejaVuSans-74"/>
      <path d="M 18.109375 8.203125 
L 18.109375 -20.796875 
L 9.078125 -20.796875 
L 9.078125 54.6875 
L 18.109375 54.6875 
L 18.109375 46.390625 
Q 20.953125 51.265625 25.265625 53.625 
Q 29.59375 56 35.59375 56 
Q 45.5625 56 51.78125 48.09375 
Q 58.015625 40.1875 58.015625 27.296875 
Q 58.015625 14.40625 51.78125 6.484375 
Q 45.5625 -1.421875 35.59375 -1.421875 
Q 29.59375 -1.421875 25.265625 0.953125 
Q 20.953125 3.328125 18.109375 8.203125 
z
M 48.6875 27.296875 
Q 48.6875 37.203125 44.609375 42.84375 
Q 40.53125 48.484375 33.40625 48.484375 
Q 26.265625 48.484375 22.1875 42.84375 
Q 18.109375 37.203125 18.109375 27.296875 
Q 18.109375 17.390625 22.1875 11.75 
Q 26.265625 6.109375 33.40625 6.109375 
Q 40.53125 6.109375 44.609375 11.75 
Q 48.6875 17.390625 48.6875 27.296875 
z
" id="DejaVuSans-112"/>
      <path d="M 9.421875 54.6875 
L 18.40625 54.6875 
L 18.40625 0 
L 9.421875 0 
z
M 9.421875 75.984375 
L 18.40625 75.984375 
L 18.40625 64.59375 
L 9.421875 64.59375 
z
" id="DejaVuSans-105"/>
     </defs>
     <g transform="translate(94.6 131.461063)scale(0.1 -0.1)">
      <use xlink:href="#DejaVuSans-74"/>
      <use x="29.492188" xlink:href="#DejaVuSans-117"/>
      <use x="92.871094" xlink:href="#DejaVuSans-112"/>
      <use x="156.347656" xlink:href="#DejaVuSans-105"/>
      <use x="184.130859" xlink:href="#DejaVuSans-116"/>
      <use x="223.339844" xlink:href="#DejaVuSans-101"/>
      <use x="284.863281" xlink:href="#DejaVuSans-114"/>
     </g>
    </g>
    <g id="line2d_34">
     <path d="M 66.6 142.639188 
L 86.6 142.639188 
" style="fill:none;stroke:#00bfbf;stroke-linecap:square;stroke-width:1.5;"/>
    </g>
    <g id="line2d_35"/>
    <g id="text_21">
     <!-- Saturn -->
     <g transform="translate(94.6 146.139188)scale(0.1 -0.1)">
      <use xlink:href="#DejaVuSans-83"/>
      <use x="63.476562" xlink:href="#DejaVuSans-97"/>
      <use x="124.755859" xlink:href="#DejaVuSans-116"/>
      <use x="163.964844" xlink:href="#DejaVuSans-117"/>
      <use x="227.34375" xlink:href="#DejaVuSans-114"/>
      <use x="266.707031" xlink:href="#DejaVuSans-110"/>
     </g>
    </g>
    <g id="line2d_36">
     <path d="M 66.6 157.317313 
L 86.6 157.317313 
" style="fill:none;stroke:#ff0000;stroke-linecap:square;stroke-width:1.5;"/>
    </g>
    <g id="line2d_37"/>
    <g id="text_22">
     <!-- Uranus -->
     <defs>
      <path d="M 8.6875 72.90625 
L 18.609375 72.90625 
L 18.609375 28.609375 
Q 18.609375 16.890625 22.84375 11.734375 
Q 27.09375 6.59375 36.625 6.59375 
Q 46.09375 6.59375 50.34375 11.734375 
Q 54.59375 16.890625 54.59375 28.609375 
L 54.59375 72.90625 
L 64.5 72.90625 
L 64.5 27.390625 
Q 64.5 13.140625 57.4375 5.859375 
Q 50.390625 -1.421875 36.625 -1.421875 
Q 22.796875 -1.421875 15.734375 5.859375 
Q 8.6875 13.140625 8.6875 27.390625 
z
" id="DejaVuSans-85"/>
     </defs>
     <g transform="translate(94.6 160.817313)scale(0.1 -0.1)">
      <use xlink:href="#DejaVuSans-85"/>
      <use x="73.193359" xlink:href="#DejaVuSans-114"/>
      <use x="114.306641" xlink:href="#DejaVuSans-97"/>
      <use x="175.585938" xlink:href="#DejaVuSans-110"/>
      <use x="238.964844" xlink:href="#DejaVuSans-117"/>
      <use x="302.34375" xlink:href="#DejaVuSans-115"/>
     </g>
    </g>
    <g id="line2d_38">
     <path d="M 66.6 171.995438 
L 86.6 171.995438 
" style="fill:none;stroke:#00ff00;stroke-linecap:square;stroke-width:1.5;"/>
    </g>
    <g id="line2d_39"/>
    <g id="text_23">
     <!-- Neptune -->
     <defs>
      <path d="M 9.8125 72.90625 
L 23.09375 72.90625 
L 55.421875 11.921875 
L 55.421875 72.90625 
L 64.984375 72.90625 
L 64.984375 0 
L 51.703125 0 
L 19.390625 60.984375 
L 19.390625 0 
L 9.8125 0 
z
" id="DejaVuSans-78"/>
     </defs>
     <g transform="translate(94.6 175.495438)scale(0.1 -0.1)">
      <use xlink:href="#DejaVuSans-78"/>
      <use x="74.804688" xlink:href="#DejaVuSans-101"/>
      <use x="136.328125" xlink:href="#DejaVuSans-112"/>
      <use x="199.804688" xlink:href="#DejaVuSans-116"/>
      <use x="239.013672" xlink:href="#DejaVuSans-117"/>
      <use x="302.392578" xlink:href="#DejaVuSans-110"/>
      <use x="365.771484" xlink:href="#DejaVuSans-101"/>
     </g>
    </g>
   </g>
  </g>
 </g>
 <defs>
  <clipPath id="p1c2180fe0d">
   <rect height="266.112" width="357.12" x="57.6" y="41.472"/>
  </clipPath>
 </defs>
</svg>
